<mxfile host="app.diagrams.net" agent="Mozilla/5.0 (Windows NT 10.0; Win64; x64) AppleWebKit/537.36 (KHTML, like Gecko) Chrome/134.0.0.0 Safari/537.36" version="26.1.2">
  <diagram name="Page-1" id="to7IlteSd3gww7VqSB1q">
    <mxGraphModel dx="1793" dy="965" grid="1" gridSize="10" guides="1" tooltips="1" connect="1" arrows="1" fold="1" page="1" pageScale="1" pageWidth="827" pageHeight="1169" math="0" shadow="0">
      <root>
        <mxCell id="0" />
        <mxCell id="1" parent="0" />
        <mxCell id="9w01BeXZ-VJ-QjcLsOL3-1" value="Offline Mode Functionality - Activity Diagram" style="shape=umlFrame;whiteSpace=wrap;html=1;pointerEvents=0;recursiveResize=0;container=1;collapsible=0;width=240;height=30;" vertex="1" parent="1">
          <mxGeometry x="220" width="1210" height="1220" as="geometry" />
        </mxCell>
        <mxCell id="9w01BeXZ-VJ-QjcLsOL3-3" value="Check Feature Availability" style="rounded=1;whiteSpace=wrap;html=1;" vertex="1" parent="9w01BeXZ-VJ-QjcLsOL3-1">
          <mxGeometry x="650" y="560" width="260" height="40" as="geometry" />
        </mxCell>
        <mxCell id="9w01BeXZ-VJ-QjcLsOL3-4" value="Request Feature" style="endArrow=classic;html=1;rounded=0;exitX=0.5;exitY=1;exitDx=0;exitDy=0;entryX=0.5;entryY=0;entryDx=0;entryDy=0;" edge="1" parent="9w01BeXZ-VJ-QjcLsOL3-1" source="9w01BeXZ-VJ-QjcLsOL3-5" target="9w01BeXZ-VJ-QjcLsOL3-3">
          <mxGeometry width="50" height="50" relative="1" as="geometry">
            <mxPoint x="780" y="664" as="sourcePoint" />
            <mxPoint x="830" y="614" as="targetPoint" />
          </mxGeometry>
        </mxCell>
        <mxCell id="9w01BeXZ-VJ-QjcLsOL3-5" value="User Navigates App" style="rounded=1;whiteSpace=wrap;html=1;" vertex="1" parent="9w01BeXZ-VJ-QjcLsOL3-1">
          <mxGeometry x="650" y="460" width="260" height="40" as="geometry" />
        </mxCell>
        <mxCell id="9w01BeXZ-VJ-QjcLsOL3-6" value="" style="endArrow=classic;html=1;rounded=0;exitX=0.5;exitY=1;exitDx=0;exitDy=0;entryX=0.5;entryY=0;entryDx=0;entryDy=0;" edge="1" parent="9w01BeXZ-VJ-QjcLsOL3-1" source="9w01BeXZ-VJ-QjcLsOL3-7" target="9w01BeXZ-VJ-QjcLsOL3-5">
          <mxGeometry width="50" height="50" relative="1" as="geometry">
            <mxPoint x="780" y="664" as="sourcePoint" />
            <mxPoint x="830" y="614" as="targetPoint" />
          </mxGeometry>
        </mxCell>
        <mxCell id="9w01BeXZ-VJ-QjcLsOL3-7" value="Load Offline Resources" style="rounded=1;whiteSpace=wrap;html=1;" vertex="1" parent="9w01BeXZ-VJ-QjcLsOL3-1">
          <mxGeometry x="650" y="375" width="260" height="40" as="geometry" />
        </mxCell>
        <mxCell id="9w01BeXZ-VJ-QjcLsOL3-8" value="" style="endArrow=classic;html=1;rounded=0;exitX=0.5;exitY=1;exitDx=0;exitDy=0;entryX=0.5;entryY=0;entryDx=0;entryDy=0;" edge="1" parent="9w01BeXZ-VJ-QjcLsOL3-1" source="9w01BeXZ-VJ-QjcLsOL3-9" target="9w01BeXZ-VJ-QjcLsOL3-7">
          <mxGeometry width="50" height="50" relative="1" as="geometry">
            <mxPoint x="780" y="664" as="sourcePoint" />
            <mxPoint x="830" y="614" as="targetPoint" />
          </mxGeometry>
        </mxCell>
        <mxCell id="9w01BeXZ-VJ-QjcLsOL3-9" value="Display Offline Notification" style="rounded=1;whiteSpace=wrap;html=1;" vertex="1" parent="9w01BeXZ-VJ-QjcLsOL3-1">
          <mxGeometry x="650" y="290" width="260" height="40" as="geometry" />
        </mxCell>
        <mxCell id="9w01BeXZ-VJ-QjcLsOL3-10" value="" style="endArrow=classic;html=1;rounded=0;exitX=0.5;exitY=1;exitDx=0;exitDy=0;entryX=0.5;entryY=0;entryDx=0;entryDy=0;" edge="1" parent="9w01BeXZ-VJ-QjcLsOL3-1" source="9w01BeXZ-VJ-QjcLsOL3-11" target="9w01BeXZ-VJ-QjcLsOL3-9">
          <mxGeometry width="50" height="50" relative="1" as="geometry">
            <mxPoint x="790" y="564" as="sourcePoint" />
            <mxPoint x="840" y="514" as="targetPoint" />
          </mxGeometry>
        </mxCell>
        <mxCell id="9w01BeXZ-VJ-QjcLsOL3-11" value="Check Downloaded Content" style="rounded=1;whiteSpace=wrap;html=1;" vertex="1" parent="9w01BeXZ-VJ-QjcLsOL3-1">
          <mxGeometry x="650" y="220" width="260" height="40" as="geometry" />
        </mxCell>
        <mxCell id="9w01BeXZ-VJ-QjcLsOL3-12" value="Manage Content Storage" style="rounded=1;whiteSpace=wrap;html=1;" vertex="1" parent="9w01BeXZ-VJ-QjcLsOL3-1">
          <mxGeometry x="635" y="1020" width="290" height="40" as="geometry" />
        </mxCell>
        <mxCell id="9w01BeXZ-VJ-QjcLsOL3-13" value="View Downloaded Content" style="rounded=1;whiteSpace=wrap;html=1;" vertex="1" parent="9w01BeXZ-VJ-QjcLsOL3-1">
          <mxGeometry x="635" y="930" width="290" height="40" as="geometry" />
        </mxCell>
        <mxCell id="9w01BeXZ-VJ-QjcLsOL3-14" value="" style="endArrow=classic;html=1;rounded=0;exitX=0.5;exitY=1;exitDx=0;exitDy=0;entryX=0.5;entryY=0;entryDx=0;entryDy=0;" edge="1" parent="9w01BeXZ-VJ-QjcLsOL3-1" source="9w01BeXZ-VJ-QjcLsOL3-13" target="9w01BeXZ-VJ-QjcLsOL3-12">
          <mxGeometry width="50" height="50" relative="1" as="geometry">
            <mxPoint x="1025" y="1150" as="sourcePoint" />
            <mxPoint x="1075" y="1100" as="targetPoint" />
          </mxGeometry>
        </mxCell>
        <mxCell id="9w01BeXZ-VJ-QjcLsOL3-16" value="Manage Content" style="endArrow=classic;html=1;rounded=0;entryX=0.5;entryY=0;entryDx=0;entryDy=0;" edge="1" parent="9w01BeXZ-VJ-QjcLsOL3-1" target="9w01BeXZ-VJ-QjcLsOL3-40">
          <mxGeometry width="50" height="50" relative="1" as="geometry">
            <mxPoint x="510" y="710" as="sourcePoint" />
            <mxPoint x="210" y="900" as="targetPoint" />
            <Array as="points">
              <mxPoint x="200" y="710" />
            </Array>
          </mxGeometry>
        </mxCell>
        <mxCell id="9w01BeXZ-VJ-QjcLsOL3-18" value="Return" style="endArrow=classic;html=1;rounded=0;exitX=0.5;exitY=1;exitDx=0;exitDy=0;entryX=0.5;entryY=0;entryDx=0;entryDy=0;" edge="1" parent="9w01BeXZ-VJ-QjcLsOL3-1" source="9w01BeXZ-VJ-QjcLsOL3-12" target="9w01BeXZ-VJ-QjcLsOL3-46">
          <mxGeometry x="0.8333" y="10" width="50" height="50" relative="1" as="geometry">
            <mxPoint x="660" y="1200" as="sourcePoint" />
            <mxPoint x="692.5" y="1140" as="targetPoint" />
            <mxPoint as="offset" />
          </mxGeometry>
        </mxCell>
        <mxCell id="9w01BeXZ-VJ-QjcLsOL3-20" value="" style="endArrow=classic;html=1;rounded=0;exitX=0.5;exitY=1;exitDx=0;exitDy=0;entryX=1;entryY=0.5;entryDx=0;entryDy=0;" edge="1" parent="9w01BeXZ-VJ-QjcLsOL3-1" source="9w01BeXZ-VJ-QjcLsOL3-3" target="9w01BeXZ-VJ-QjcLsOL3-41">
          <mxGeometry x="0.0478" y="-66" width="50" height="50" relative="1" as="geometry">
            <mxPoint x="780" y="682.5000000000002" as="sourcePoint" />
            <mxPoint x="450.0000000000002" y="970.0000000000002" as="targetPoint" />
            <mxPoint as="offset" />
            <Array as="points">
              <mxPoint x="780" y="670" />
            </Array>
          </mxGeometry>
        </mxCell>
        <mxCell id="9w01BeXZ-VJ-QjcLsOL3-101" style="edgeStyle=orthogonalEdgeStyle;rounded=0;orthogonalLoop=1;jettySize=auto;html=1;entryX=0;entryY=0.5;entryDx=0;entryDy=0;" edge="1" parent="9w01BeXZ-VJ-QjcLsOL3-1" source="9w01BeXZ-VJ-QjcLsOL3-22" target="9w01BeXZ-VJ-QjcLsOL3-13">
          <mxGeometry relative="1" as="geometry">
            <Array as="points">
              <mxPoint x="380" y="580" />
              <mxPoint x="380" y="950" />
            </Array>
          </mxGeometry>
        </mxCell>
        <mxCell id="9w01BeXZ-VJ-QjcLsOL3-22" value="Download Offline Content" style="rounded=1;whiteSpace=wrap;html=1;" vertex="1" parent="9w01BeXZ-VJ-QjcLsOL3-1">
          <mxGeometry x="20" y="550" width="220" height="40" as="geometry" />
        </mxCell>
        <mxCell id="9w01BeXZ-VJ-QjcLsOL3-98" style="edgeStyle=orthogonalEdgeStyle;rounded=0;orthogonalLoop=1;jettySize=auto;html=1;entryX=0.5;entryY=0;entryDx=0;entryDy=0;" edge="1" parent="9w01BeXZ-VJ-QjcLsOL3-1" source="9w01BeXZ-VJ-QjcLsOL3-23" target="9w01BeXZ-VJ-QjcLsOL3-97">
          <mxGeometry relative="1" as="geometry" />
        </mxCell>
        <mxCell id="9w01BeXZ-VJ-QjcLsOL3-23" value="Display Download Option" style="rounded=1;whiteSpace=wrap;html=1;" vertex="1" parent="9w01BeXZ-VJ-QjcLsOL3-1">
          <mxGeometry x="20" y="280" width="220" height="40" as="geometry" />
        </mxCell>
        <mxCell id="9w01BeXZ-VJ-QjcLsOL3-24" value="" style="endArrow=classic;html=1;rounded=0;exitX=0.5;exitY=1;exitDx=0;exitDy=0;" edge="1" parent="9w01BeXZ-VJ-QjcLsOL3-1" source="9w01BeXZ-VJ-QjcLsOL3-99" target="9w01BeXZ-VJ-QjcLsOL3-22">
          <mxGeometry width="50" height="50" relative="1" as="geometry">
            <mxPoint x="130" y="420" as="sourcePoint" />
            <mxPoint x="430" y="440" as="targetPoint" />
          </mxGeometry>
        </mxCell>
        <mxCell id="9w01BeXZ-VJ-QjcLsOL3-25" value="Online Active" style="rounded=1;whiteSpace=wrap;html=1;" vertex="1" parent="9w01BeXZ-VJ-QjcLsOL3-1">
          <mxGeometry x="20" y="210" width="220" height="40" as="geometry" />
        </mxCell>
        <mxCell id="9w01BeXZ-VJ-QjcLsOL3-26" value="" style="endArrow=classic;html=1;rounded=0;exitX=0.5;exitY=1;exitDx=0;exitDy=0;entryX=0.5;entryY=0;entryDx=0;entryDy=0;" edge="1" parent="9w01BeXZ-VJ-QjcLsOL3-1" source="9w01BeXZ-VJ-QjcLsOL3-25" target="9w01BeXZ-VJ-QjcLsOL3-23">
          <mxGeometry width="50" height="50" relative="1" as="geometry">
            <mxPoint x="380" y="490" as="sourcePoint" />
            <mxPoint x="430" y="440" as="targetPoint" />
          </mxGeometry>
        </mxCell>
        <mxCell id="9w01BeXZ-VJ-QjcLsOL3-29" value="Internet&#xa;Connection?" style="rhombus;whiteSpace=wrap;html=1;" vertex="1" parent="9w01BeXZ-VJ-QjcLsOL3-1">
          <mxGeometry x="390" y="150" width="100" height="80" as="geometry" />
        </mxCell>
        <mxCell id="9w01BeXZ-VJ-QjcLsOL3-31" value="Disconnected" style="endArrow=classic;html=1;rounded=0;exitX=1;exitY=0.5;exitDx=0;exitDy=0;entryX=0.5;entryY=0;entryDx=0;entryDy=0;" edge="1" parent="9w01BeXZ-VJ-QjcLsOL3-1" source="9w01BeXZ-VJ-QjcLsOL3-29" target="9w01BeXZ-VJ-QjcLsOL3-11">
          <mxGeometry x="-0.5625" y="10" width="50" height="50" relative="1" as="geometry">
            <mxPoint x="410" y="280" as="sourcePoint" />
            <mxPoint x="730" y="190" as="targetPoint" />
            <Array as="points">
              <mxPoint x="780" y="190" />
            </Array>
            <mxPoint as="offset" />
          </mxGeometry>
        </mxCell>
        <mxCell id="9w01BeXZ-VJ-QjcLsOL3-32" value="" style="ellipse;fillColor=#000000;strokeColor=none;" vertex="1" parent="9w01BeXZ-VJ-QjcLsOL3-1">
          <mxGeometry x="430" y="40" width="20" height="20" as="geometry" />
        </mxCell>
        <mxCell id="9w01BeXZ-VJ-QjcLsOL3-33" value="" style="endArrow=classic;html=1;rounded=0;exitX=0.5;exitY=1;exitDx=0;exitDy=0;entryX=0.5;entryY=0;entryDx=0;entryDy=0;" edge="1" parent="9w01BeXZ-VJ-QjcLsOL3-1" source="9w01BeXZ-VJ-QjcLsOL3-32" target="9w01BeXZ-VJ-QjcLsOL3-29">
          <mxGeometry width="50" height="50" relative="1" as="geometry">
            <mxPoint x="410" y="280" as="sourcePoint" />
            <mxPoint x="460" y="230" as="targetPoint" />
          </mxGeometry>
        </mxCell>
        <mxCell id="9w01BeXZ-VJ-QjcLsOL3-34" value="Return to Online Mode" style="rounded=1;whiteSpace=wrap;html=1;" vertex="1" parent="9w01BeXZ-VJ-QjcLsOL3-1">
          <mxGeometry x="80" y="1000" width="240" height="40" as="geometry" />
        </mxCell>
        <mxCell id="9w01BeXZ-VJ-QjcLsOL3-35" value="" style="endArrow=classic;html=1;rounded=0;exitX=0.5;exitY=1;exitDx=0;exitDy=0;entryX=0.5;entryY=0;entryDx=0;entryDy=0;" edge="1" parent="9w01BeXZ-VJ-QjcLsOL3-1" source="9w01BeXZ-VJ-QjcLsOL3-36" target="9w01BeXZ-VJ-QjcLsOL3-34">
          <mxGeometry width="50" height="50" relative="1" as="geometry">
            <mxPoint x="470" y="1080" as="sourcePoint" />
            <mxPoint x="520" y="1030" as="targetPoint" />
          </mxGeometry>
        </mxCell>
        <mxCell id="9w01BeXZ-VJ-QjcLsOL3-36" value="Synchronize User Data" style="rounded=1;whiteSpace=wrap;html=1;" vertex="1" parent="9w01BeXZ-VJ-QjcLsOL3-1">
          <mxGeometry x="80" y="910" width="240" height="40" as="geometry" />
        </mxCell>
        <mxCell id="9w01BeXZ-VJ-QjcLsOL3-37" value="User Accepts" style="endArrow=classic;html=1;rounded=0;exitX=0.5;exitY=1;exitDx=0;exitDy=0;entryX=0.5;entryY=0;entryDx=0;entryDy=0;" edge="1" parent="9w01BeXZ-VJ-QjcLsOL3-1" source="9w01BeXZ-VJ-QjcLsOL3-38" target="9w01BeXZ-VJ-QjcLsOL3-36">
          <mxGeometry width="50" height="50" relative="1" as="geometry">
            <mxPoint x="470" y="1080" as="sourcePoint" />
            <mxPoint x="520" y="1030" as="targetPoint" />
          </mxGeometry>
        </mxCell>
        <mxCell id="9w01BeXZ-VJ-QjcLsOL3-38" value="Notify User" style="rounded=1;whiteSpace=wrap;html=1;" vertex="1" parent="9w01BeXZ-VJ-QjcLsOL3-1">
          <mxGeometry x="80" y="830" width="240" height="40" as="geometry" />
        </mxCell>
        <mxCell id="9w01BeXZ-VJ-QjcLsOL3-39" value="" style="endArrow=classic;html=1;rounded=0;exitX=0.5;exitY=1;exitDx=0;exitDy=0;entryX=0.5;entryY=0;entryDx=0;entryDy=0;" edge="1" parent="9w01BeXZ-VJ-QjcLsOL3-1" source="9w01BeXZ-VJ-QjcLsOL3-40" target="9w01BeXZ-VJ-QjcLsOL3-38">
          <mxGeometry width="50" height="50" relative="1" as="geometry">
            <mxPoint x="470" y="1080" as="sourcePoint" />
            <mxPoint x="520" y="1030" as="targetPoint" />
          </mxGeometry>
        </mxCell>
        <mxCell id="9w01BeXZ-VJ-QjcLsOL3-40" value="Connection Restored" style="rounded=1;whiteSpace=wrap;html=1;" vertex="1" parent="9w01BeXZ-VJ-QjcLsOL3-1">
          <mxGeometry x="80" y="760" width="240" height="40" as="geometry" />
        </mxCell>
        <mxCell id="9w01BeXZ-VJ-QjcLsOL3-41" value="Connection&lt;br&gt;Restored?" style="rhombus;whiteSpace=wrap;html=1;" vertex="1" parent="9w01BeXZ-VJ-QjcLsOL3-1">
          <mxGeometry x="460" y="630" width="100" height="80" as="geometry" />
        </mxCell>
        <mxCell id="9w01BeXZ-VJ-QjcLsOL3-42" style="edgeStyle=orthogonalEdgeStyle;rounded=0;orthogonalLoop=1;jettySize=auto;html=1;entryX=0;entryY=0.5;entryDx=0;entryDy=0;" edge="1" parent="9w01BeXZ-VJ-QjcLsOL3-1" source="9w01BeXZ-VJ-QjcLsOL3-41" target="9w01BeXZ-VJ-QjcLsOL3-9">
          <mxGeometry relative="1" as="geometry">
            <mxPoint x="634.9965217391305" y="310.04" as="targetPoint" />
            <Array as="points">
              <mxPoint x="510" y="310" />
            </Array>
            <mxPoint x="364.99652173913046" y="610.0747826086954" as="sourcePoint" />
          </mxGeometry>
        </mxCell>
        <mxCell id="9w01BeXZ-VJ-QjcLsOL3-43" value="No" style="text;html=1;align=center;verticalAlign=middle;resizable=0;points=[];autosize=1;strokeColor=none;fillColor=none;" vertex="1" parent="9w01BeXZ-VJ-QjcLsOL3-1">
          <mxGeometry x="470" y="550" width="40" height="30" as="geometry" />
        </mxCell>
        <mxCell id="9w01BeXZ-VJ-QjcLsOL3-44" value="Check Connectivity" style="swimlane;fontStyle=1;align=center;verticalAlign=top;childLayout=stackLayout;horizontal=1;startSize=26;horizontalStack=0;resizeParent=1;resizeParentMax=0;resizeLast=0;collapsible=1;marginBottom=0;" vertex="1" parent="9w01BeXZ-VJ-QjcLsOL3-1">
          <mxGeometry x="440" y="600" width="140" height="140" as="geometry" />
        </mxCell>
        <mxCell id="9w01BeXZ-VJ-QjcLsOL3-45" style="edgeStyle=orthogonalEdgeStyle;rounded=0;orthogonalLoop=1;jettySize=auto;html=1;entryX=0.75;entryY=1;entryDx=0;entryDy=0;" edge="1" parent="9w01BeXZ-VJ-QjcLsOL3-1" source="9w01BeXZ-VJ-QjcLsOL3-44" target="9w01BeXZ-VJ-QjcLsOL3-44">
          <mxGeometry relative="1" as="geometry">
            <Array as="points">
              <mxPoint x="550" y="580" />
              <mxPoint x="620" y="580" />
              <mxPoint x="620" y="760" />
              <mxPoint x="548" y="760" />
              <mxPoint x="548" y="740" />
            </Array>
          </mxGeometry>
        </mxCell>
        <mxCell id="9w01BeXZ-VJ-QjcLsOL3-46" value="" style="ellipse;html=1;shape=endState;fillColor=strokeColor;" vertex="1" parent="9w01BeXZ-VJ-QjcLsOL3-1">
          <mxGeometry x="765" y="1180" width="30" height="30" as="geometry" />
        </mxCell>
        <mxCell id="9w01BeXZ-VJ-QjcLsOL3-47" value="Store Selected Content" style="text;html=1;align=center;verticalAlign=middle;resizable=0;points=[];autosize=1;strokeColor=none;fillColor=none;" vertex="1" parent="9w01BeXZ-VJ-QjcLsOL3-1">
          <mxGeometry x="410" y="920" width="150" height="30" as="geometry" />
        </mxCell>
        <mxCell id="9w01BeXZ-VJ-QjcLsOL3-48" value="Yes" style="text;html=1;align=center;verticalAlign=middle;resizable=0;points=[];autosize=1;strokeColor=none;fillColor=none;" vertex="1" parent="9w01BeXZ-VJ-QjcLsOL3-1">
          <mxGeometry x="420" y="740" width="40" height="30" as="geometry" />
        </mxCell>
        <mxCell id="9w01BeXZ-VJ-QjcLsOL3-49" style="edgeStyle=orthogonalEdgeStyle;rounded=0;orthogonalLoop=1;jettySize=auto;html=1;exitX=0.5;exitY=1;exitDx=0;exitDy=0;" edge="1" parent="9w01BeXZ-VJ-QjcLsOL3-1" source="9w01BeXZ-VJ-QjcLsOL3-22" target="9w01BeXZ-VJ-QjcLsOL3-22">
          <mxGeometry relative="1" as="geometry" />
        </mxCell>
        <mxCell id="9w01BeXZ-VJ-QjcLsOL3-30" value="Connected" style="endArrow=classic;html=1;rounded=0;exitX=0;exitY=0.5;exitDx=0;exitDy=0;entryX=0.5;entryY=0;entryDx=0;entryDy=0;" edge="1" parent="9w01BeXZ-VJ-QjcLsOL3-1" source="9w01BeXZ-VJ-QjcLsOL3-29" target="9w01BeXZ-VJ-QjcLsOL3-25">
          <mxGeometry x="-0.5714" y="-10" width="50" height="50" relative="1" as="geometry">
            <mxPoint x="410" y="280" as="sourcePoint" />
            <mxPoint x="460" y="230" as="targetPoint" />
            <Array as="points">
              <mxPoint x="130" y="190" />
            </Array>
            <mxPoint as="offset" />
          </mxGeometry>
        </mxCell>
        <mxCell id="9w01BeXZ-VJ-QjcLsOL3-100" style="edgeStyle=orthogonalEdgeStyle;rounded=0;orthogonalLoop=1;jettySize=auto;html=1;entryX=0.5;entryY=0;entryDx=0;entryDy=0;" edge="1" parent="9w01BeXZ-VJ-QjcLsOL3-1" source="9w01BeXZ-VJ-QjcLsOL3-97" target="9w01BeXZ-VJ-QjcLsOL3-99">
          <mxGeometry relative="1" as="geometry" />
        </mxCell>
        <mxCell id="9w01BeXZ-VJ-QjcLsOL3-97" value="Display Download Content Categories" style="rounded=1;whiteSpace=wrap;html=1;" vertex="1" parent="9w01BeXZ-VJ-QjcLsOL3-1">
          <mxGeometry x="20" y="375" width="220" height="40" as="geometry" />
        </mxCell>
        <mxCell id="9w01BeXZ-VJ-QjcLsOL3-99" value="Estimated space storage" style="rounded=1;whiteSpace=wrap;html=1;" vertex="1" parent="9w01BeXZ-VJ-QjcLsOL3-1">
          <mxGeometry x="20" y="460" width="220" height="40" as="geometry" />
        </mxCell>
        <mxCell id="9w01BeXZ-VJ-QjcLsOL3-28" value="Synchronization&#xa;Complete" style="endArrow=classic;html=1;rounded=0;exitX=0.5;exitY=1;exitDx=0;exitDy=0;entryX=0;entryY=0.5;entryDx=0;entryDy=0;" edge="1" parent="9w01BeXZ-VJ-QjcLsOL3-1" source="9w01BeXZ-VJ-QjcLsOL3-34" target="9w01BeXZ-VJ-QjcLsOL3-46">
          <mxGeometry width="50" height="50" relative="1" as="geometry">
            <mxPoint x="410" y="280" as="sourcePoint" />
            <mxPoint x="-110" y="540" as="targetPoint" />
            <Array as="points">
              <mxPoint x="200" y="1195" />
            </Array>
          </mxGeometry>
        </mxCell>
        <mxCell id="9w01BeXZ-VJ-QjcLsOL3-15" value="Content Management" style="swimlane;fontStyle=1;align=center;verticalAlign=top;childLayout=stackLayout;horizontal=1;startSize=26;horizontalStack=0;resizeParent=1;resizeParentMax=0;resizeLast=0;collapsible=1;marginBottom=0;" vertex="1" parent="9w01BeXZ-VJ-QjcLsOL3-1">
          <mxGeometry x="635" y="850" width="290" height="280" as="geometry">
            <mxRectangle x="740" y="630" width="160" height="30" as="alternateBounds" />
          </mxGeometry>
        </mxCell>
        <mxCell id="9w01BeXZ-VJ-QjcLsOL3-19" value="Synchronization" style="swimlane;fontStyle=1;align=center;verticalAlign=top;childLayout=stackLayout;horizontal=1;startSize=26;horizontalStack=0;resizeParent=1;resizeParentMax=0;resizeLast=0;collapsible=1;marginBottom=0;" vertex="1" parent="9w01BeXZ-VJ-QjcLsOL3-1">
          <mxGeometry x="80" y="720" width="240" height="350" as="geometry">
            <mxRectangle x="120" y="760" width="130" height="30" as="alternateBounds" />
          </mxGeometry>
        </mxCell>
        <mxCell id="9w01BeXZ-VJ-QjcLsOL3-103" value="Online Mode" style="swimlane;fontStyle=1;align=center;verticalAlign=top;childLayout=stackLayout;horizontal=1;startSize=26;horizontalStack=0;resizeParent=1;resizeParentMax=0;resizeLast=0;collapsible=1;marginBottom=0;" vertex="1" parent="9w01BeXZ-VJ-QjcLsOL3-1">
          <mxGeometry x="20" y="150" width="220" height="460" as="geometry">
            <mxRectangle x="120" y="760" width="130" height="30" as="alternateBounds" />
          </mxGeometry>
        </mxCell>
        <mxCell id="9w01BeXZ-VJ-QjcLsOL3-104" value="Offline Mode" style="swimlane;fontStyle=1;align=center;verticalAlign=top;childLayout=stackLayout;horizontal=1;startSize=26;horizontalStack=0;resizeParent=1;resizeParentMax=0;resizeLast=0;collapsible=1;marginBottom=0;" vertex="1" parent="9w01BeXZ-VJ-QjcLsOL3-1">
          <mxGeometry x="650" y="140" width="260" height="500" as="geometry">
            <mxRectangle x="120" y="760" width="130" height="30" as="alternateBounds" />
          </mxGeometry>
        </mxCell>
      </root>
    </mxGraphModel>
  </diagram>
</mxfile>
